<?xml version="1.0" encoding="utf-8"?>
<!-- Generator: Adobe Illustrator 16.0.0, SVG Export Plug-In . SVG Version: 6.00 Build 0)  -->
<!DOCTYPE svg PUBLIC "-//W3C//DTD SVG 1.0//EN" "http://www.w3.org/TR/2001/REC-SVG-20010904/DTD/svg10.dtd">
<svg version="1.0" id="Layer_1" xmlns="http://www.w3.org/2000/svg" xmlns:xlink="http://www.w3.org/1999/xlink" x="0px" y="0px"
	 width="137px" height="56px" viewBox="0 0 137 56" enable-background="new 0 0 137 56" xml:space="preserve">
<g>
	<g>
		<path fill="#FFFF00" d="M3.655,25.511v1.123h7.876v2.162H3.655v2.291c0,0.611,0.501,1.116,1.12,1.116h8.939v2.161H4.774
			c-1.825,0-3.302-1.47-3.302-3.277v-5.576c0-1.809,1.477-3.279,3.302-3.279h8.939v2.162H4.774
			C4.156,24.394,3.655,24.898,3.655,25.511z"/>
		<path fill="#FFFF00" d="M17.651,25.511v1.123h7.877v2.162h-7.877v2.291c0,0.611,0.503,1.116,1.12,1.116h8.939v2.161h-8.939
			c-1.826,0-3.301-1.47-3.301-3.277v-5.576c0-1.809,1.476-3.279,3.301-3.279h8.939v2.162h-8.939
			C18.154,24.394,17.651,24.898,17.651,25.511z"/>
		<path fill="#FFFF00" d="M41.708,22.243v2.163H36.68v9.961h-2.185v-9.961h-5.028v-2.163H41.708z"/>
		<path fill="#FFFF00" d="M55.705,22.243v2.163h-5.029v9.961h-2.184v-9.961h-5.028v-2.163H55.705z"/>
		<path fill="#FFFF00" d="M57.46,34.36V22.236h2.184V34.36H57.46z"/>
	</g>
	<g>
		<polygon fill="#FFFF00" points="135.526,28.235 119.527,23.285 119.527,33.188 135.528,28.235 		"/>
		<path fill="#FFFF00" d="M109.599,28.748v5.542h-2.155V22.205h2.155v4.387h7.772v-3.975L49.047,1.472
			c21.134,11.55,14.302,26.764,14.302,26.764h0.002c0,0,6.832,15.214-14.302,26.765l68.322-21.146v-5.106H109.599z M79.197,24.372
			h-4.964V34.3h-2.156v-9.928h-4.964v-2.156h12.084V24.372z M93.014,24.36h-8.824c-0.61,0-1.105,0.502-1.105,1.112v1.12h7.776v2.155
			h-7.776v2.282c0,0.61,0.495,1.113,1.105,1.113h8.824v2.153h-8.824c-1.802,0-3.259-1.464-3.259-3.267v-5.557
			c0-1.802,1.457-3.267,3.259-3.267h8.824V24.36z M105.717,24.36h-6.046c-2.148,0-3.892,1.744-3.892,3.891
			c0,2.147,1.743,3.892,3.892,3.892h6.046v2.153h-6.046c-3.34,0-6.045-2.706-6.045-6.045c0-3.338,2.705-6.045,6.045-6.045h6.046
			V24.36z"/>
	</g>
</g>
</svg>
